<?xml version="1.0" encoding="UTF-8" standalone="no"?>
<svg width="13px" height="15px" viewBox="0 0 13 15" version="1.1" xmlns="http://www.w3.org/2000/svg" xmlns:xlink="http://www.w3.org/1999/xlink">
    <!-- Generator: Sketch 3.8.3 (29802) - http://www.bohemiancoding.com/sketch -->
    <title>Shape</title>
    <desc>Created with Sketch.</desc>
    <defs></defs>
    <g id="Page-1" stroke="none" stroke-width="1" fill="none" fill-rule="evenodd">
        <g id="S1---delivery-options-no-history" transform="translate(-808.000000, -215.000000)" fill="#999999">
            <g id="secure-checkout" transform="translate(808.000000, 215.000000)">
                <path d="M6.21550276,0 C3.80230831,0 1.87522498,1.88333333 1.87522498,4.18333333 L1.87522498,5.6 C0.798836089,5.75 0.000224977702,6.61666667 0.000224977702,7.7 L0.000224977702,12.8666667 C-0.0171361334,14.05 0.9724472,15 2.2224472,15 L10.2259194,15 C11.4585583,15 12.4481416,14.05 12.4481416,12.85 L12.4481416,7.68333333 C12.4481416,6.6 11.6321694,5.75 10.5731416,5.58333333 L10.5731416,4.18333333 C10.5557805,1.88333333 8.6286972,0 6.21550276,0 Z M6.66689164,12.5833333 C6.66689164,12.8166667 6.47591942,13.0166667 6.21550276,13.0166667 C5.98980831,13.0166667 5.78147498,12.8166667 5.78147498,12.5833333 L5.78147498,10.4 C5.26064164,10.2 4.8786972,9.75 4.8786972,9.18333333 C4.8786972,8.46666667 5.48633609,7.9 6.21550276,7.9 C6.94466942,7.9 7.55230831,8.48333333 7.55230831,9.18333333 C7.55230831,9.76666667 7.17036387,10.2166667 6.66689164,10.4 L6.66689164,12.5833333 L6.66689164,12.5833333 Z M3.45508609,5.56666667 L3.45508609,4.18333333 C3.45508609,2.7 4.67036387,1.53333333 6.19814164,1.53333333 C7.74328053,1.53333333 8.95855831,2.7 8.95855831,4.18333333 L8.95855831,5.56666667 L3.45508609,5.56666667 L3.45508609,5.56666667 Z" id="Shape"></path>
            </g>
        </g>
    </g>
</svg>