<?xml version="1.0" encoding="UTF-8" standalone="no"?>
<svg width="9px" height="9px" viewBox="0 0 9 9" version="1.1" xmlns="http://www.w3.org/2000/svg" xmlns:xlink="http://www.w3.org/1999/xlink">
    <!-- Generator: Sketch 39.1 (31720) - http://www.bohemiancoding.com/sketch -->
    <title>Path Copy</title>
    <desc>Created with Sketch.</desc>
    <defs></defs>
    <g id="Page-1" stroke="none" stroke-width="1" fill="none" fill-rule="evenodd">
        <g id="S1.1---delivery-options_selected" transform="translate(-269.000000, -325.000000)" fill="#FFFFFF">
            <g id="Delivery-options-Copy-2" transform="translate(10.000000, 225.000000)">
                <g id="Group-3-Copy" transform="translate(10.000000, 77.000000)">
                    <g id="tick_box-active" transform="translate(240.000000, 15.000000)">
                        <path d="M17.3012982,9.80739317 L13.1291649,15.9889232 C12.9270859,16.2882086 12.5979263,16.4763905 12.2382117,16.4979168 C12.2146011,16.4993056 12.1909905,16.5 12.1680743,16.5 C11.8333592,16.5 11.5132272,16.3548708 11.2923985,16.1000268 L9.2834136,13.7821267 C8.8639781,13.2981313 8.91606032,12.566236 9.40007778,12.1468197 C9.8834008,11.7280977 10.6160241,11.7794832 11.0347651,12.2634785 L12.0534934,13.4390941 L15.3805058,8.51095232 C15.7381371,7.98043233 16.458955,7.84016396 16.9894993,8.19847327 C17.5200435,8.55678258 17.6596239,9.27687319 17.3012982,9.80739317 L17.3012982,9.80739317 Z" id="Path-Copy"></path>
                    </g>
                </g>
            </g>
        </g>
    </g>
</svg>