<?xml version="1.0" encoding="UTF-8"?>
<svg width="18px" height="25px" viewBox="0 0 18 25" version="1.1" xmlns="http://www.w3.org/2000/svg" xmlns:xlink="http://www.w3.org/1999/xlink">
    <title>Store C</title>
    <desc>Store C</desc>
    <g id="Marker-C" stroke="none" stroke-width="1" fill="none" fill-rule="evenodd">
        <path d="M9.053,23 C13.577,17.9011428 17,12.3260243 17,8.70194184 C17,4.47077952 13.428,1 9.053,1 C4.587,1 1,4.45647124 1,8.70194184 C1,12.30865 4.417,17.7917867 9.053,23 Z" id="Path" stroke="#000000" stroke-width="2" fill="#000000"></path>
        <path d="M11.744,11.792 L12.656,13.008 L12.5767014,13.0914273 C12.2980096,13.3659904 11.27872,14.224 9.424,14.224 C6.48,14.224 4.576,11.984 4.576,9.216 C4.576,6.416 6.48,4.192 9.424,4.192 C11.632,4.192 12.656,5.392 12.656,5.392 L11.744,6.624 L11.688542,6.567624 C11.48036,6.36648 10.6936,5.696 9.456,5.696 C7.552,5.696 6.224,7.232 6.224,9.216 C6.224,11.184 7.552,12.704 9.456,12.704 C10.912,12.704 11.744,11.792 11.744,11.792 Z" id="C" fill="#FFFFFF" fill-rule="nonzero"></path>
    </g>
</svg>