<?xml version="1.0" encoding="UTF-8"?>
<svg width="18px" height="25px" viewBox="0 0 18 25" version="1.1" xmlns="http://www.w3.org/2000/svg" xmlns:xlink="http://www.w3.org/1999/xlink">
    <title>Store G</title>
    <desc>Store G</desc>
    <g id="Marker-G" stroke="none" stroke-width="1" fill="none" fill-rule="evenodd">
        <path d="M9.053,23 C13.577,17.9011428 17,12.3260243 17,8.70194184 C17,4.47077952 13.428,1 9.053,1 C4.587,1 1,4.45647124 1,8.70194184 C1,12.30865 4.417,17.7917867 9.053,23 Z" id="Path" stroke="#000000" stroke-width="2" fill="#000000"></path>
        <path d="M11.896,9.92 L8.968,9.92 L8.968,8.576 L13.576,8.576 L13.576,9.52 C13.576,12.368 11.928,14.224 9.176,14.224 C6.2,14.224 4.392,11.984 4.392,9.216 C4.392,6.416 6.264,4.192 9.224,4.192 C11.608,4.192 12.648,5.424 12.648,5.424 L11.72,6.64 L11.6657026,6.58770845 C11.4496327,6.38955102 10.5954286,5.696 9.224,5.696 C7.288,5.696 6.024,7.232 6.024,9.216 C6.024,11.184 7.256,12.704 9.176,12.704 C10.7937778,12.704 11.818085,11.6654266 11.8917405,10.1454827 L11.896,9.92 Z" id="G" fill="#FFFFFF" fill-rule="nonzero"></path>
    </g>
</svg>