<?xml version="1.0" encoding="UTF-8"?>
<svg width="18px" height="25px" viewBox="0 0 18 25" version="1.1" xmlns="http://www.w3.org/2000/svg" xmlns:xlink="http://www.w3.org/1999/xlink">
    <title>Store U</title>
    <desc>Store U</desc>
    <g id="Marker-U" stroke="none" stroke-width="1" fill="none" fill-rule="evenodd">
        <path d="M9.053,23 C13.577,17.9011428 17,12.3260243 17,8.70194184 C17,4.47077952 13.428,1 9.053,1 C4.587,1 1,4.45647124 1,8.70194184 C1,12.30865 4.417,17.7917867 9.053,23 Z" id="Path" stroke="#000000" stroke-width="2" fill="#000000"></path>
        <path d="M9.072,14.224 C6.576,14.224 5.056,12.432 5.056,9.936 L5.056,4.4 L6.64,4.4 L6.64,9.936 C6.64,11.52 7.456,12.704 9.072,12.704 C10.72,12.704 11.504,11.52 11.504,9.936 L11.504,4.4 L13.088,4.4 L13.088,9.936 C13.088,12.432 11.616,14.224 9.072,14.224 Z" id="U" fill="#FFFFFF" fill-rule="nonzero"></path>
    </g>
</svg>