<?xml version="1.0" encoding="UTF-8"?>
<svg width="18px" height="25px" viewBox="0 0 18 25" version="1.1" xmlns="http://www.w3.org/2000/svg" xmlns:xlink="http://www.w3.org/1999/xlink">
    <title>Store R</title>
    <desc>Store R</desc>
    <g id="Marker-R" stroke="none" stroke-width="1" fill="none" fill-rule="evenodd">
        <path d="M9.053,23 C13.577,17.9011428 17,12.3260243 17,8.70194184 C17,4.47077952 13.428,1 9.053,1 C4.587,1 1,4.45647124 1,8.70194184 C1,12.30865 4.417,17.7917867 9.053,23 Z" id="Path" stroke="#000000" stroke-width="2" fill="#000000"></path>
        <path d="M9.436,4.4 L5.484,4.4 L5.484,14 L7.068,14 L7.068,10.832 L9.356,10.832 L11.644,14 L13.388,14 L13.388,13.776 L11.084,10.656 L11.084,10.576 C12.316,10.112 13.116,9.104 13.116,7.616 C13.116,5.616 11.692,4.4 9.436,4.4 Z M11.468,7.632 C11.468,8.848 10.62,9.424 9.452,9.424 L7.068,9.424 L7.068,5.808 L9.356,5.808 C10.636,5.808 11.468,6.4 11.468,7.632 Z" id="R" fill="#FFFFFF" fill-rule="nonzero"></path>
    </g>
</svg>