<?xml version="1.0" encoding="UTF-8"?>
<svg width="18px" height="25px" viewBox="0 0 18 25" version="1.1" xmlns="http://www.w3.org/2000/svg" xmlns:xlink="http://www.w3.org/1999/xlink">
    <title>Store P</title>
    <desc>Store P</desc>
    <g id="Marker-P" stroke="none" stroke-width="1" fill="none" fill-rule="evenodd">
        <path d="M9.053,23 C13.577,17.9011428 17,12.3260243 17,8.70194184 C17,4.47077952 13.428,1 9.053,1 C4.587,1 1,4.45647124 1,8.70194184 C1,12.30865 4.417,17.7917867 9.053,23 Z" id="Path" stroke="#000000" stroke-width="2" fill="#000000"></path>
        <path d="M5.8,4.4 L5.8,14 L7.384,14 L7.384,10.896 L9.72,10.896 C11.96,10.896 13.432,9.712 13.432,7.616 C13.432,5.616 12.008,4.4 9.752,4.4 L5.8,4.4 Z M11.8,7.632 C11.8,8.928 10.952,9.504 9.688,9.504 L7.384,9.504 L7.384,5.808 L9.672,5.808 C10.952,5.808 11.8,6.4 11.8,7.632 Z" id="P" fill="#FFFFFF" fill-rule="nonzero"></path>
    </g>
</svg>