<?xml version="1.0" encoding="UTF-8"?>
<svg width="18px" height="25px" viewBox="0 0 18 25" version="1.1" xmlns="http://www.w3.org/2000/svg" xmlns:xlink="http://www.w3.org/1999/xlink">
    <title>Store S</title>
    <desc>Store S</desc>
    <g id="Marker-S" stroke="none" stroke-width="1" fill="none" fill-rule="evenodd">
        <path d="M9.053,23 C13.577,17.9011428 17,12.3260243 17,8.70194184 C17,4.47077952 13.428,1 9.053,1 C4.587,1 1,4.45647124 1,8.70194184 C1,12.30865 4.417,17.7917867 9.053,23 Z" id="Path" stroke="#000000" stroke-width="2" fill="#000000"></path>
        <path d="M5.36,13.024 L6.224,11.824 L6.2848565,11.8710624 C6.53838017,12.0598347 7.56218182,12.752 8.944,12.752 C10.24,12.752 10.8,12.208 10.8,11.424 C10.8,10.752 10.4265255,10.3867826 9.04629375,9.92645681 L8.14879927,9.64256714 C6.32615385,9.03659172 5.44,8.31630769 5.44,6.928 C5.44,5.28 6.688,4.192 8.96,4.192 C11.344,4.192 12.304,5.168 12.304,5.168 L11.44,6.464 L11.332608,6.3808 C11.04896,6.176 10.2144,5.664 8.96,5.664 C7.872,5.664 7.184,6.096 7.184,6.864 C7.184,7.52 7.696,7.84 9.312,8.32 C11.632,8.976 12.56,9.824 12.56,11.312 C12.56,12.944 11.392,14.224 8.992,14.224 C6.528,14.224 5.36,13.024 5.36,13.024 Z" id="S" fill="#FFFFFF" fill-rule="nonzero"></path>
    </g>
</svg>