<?xml version="1.0" encoding="UTF-8"?>
<svg width="18px" height="25px" viewBox="0 0 18 25" version="1.1" xmlns="http://www.w3.org/2000/svg" xmlns:xlink="http://www.w3.org/1999/xlink">
    <title>Store B</title>
    <desc>Store B</desc>
    <g id="Marker-B" stroke="none" stroke-width="1" fill="none" fill-rule="evenodd">
        <path d="M9.053,23 C13.577,17.9011428 17,12.3260243 17,8.70194184 C17,4.47077952 13.428,1 9.053,1 C4.587,1 1,4.45647124 1,8.70194184 C1,12.30865 4.417,17.7917867 9.053,23 Z" id="Path" stroke="#000000" stroke-width="2" fill="#000000"></path>
        <path d="M13.292,11.264 C13.292,10.16 12.636,9.392 11.66,9.12 L11.66,9.056 C12.476,8.704 13.004,7.968 13.004,7.008 C13.004,5.328 11.82,4.4 9.692,4.4 L5.484,4.4 L5.484,14 L9.836,14 C11.948,14 13.292,13.072 13.292,11.264 Z M11.34,7.168 C11.34,7.952 10.684,8.496 9.644,8.496 L7.068,8.496 L7.068,5.808 L9.676,5.808 C10.7,5.808 11.34,6.256 11.34,7.168 Z M7.068,9.808 L9.996,9.808 C10.908,9.856 11.628,10.368 11.628,11.184 C11.628,12.08 10.86,12.592 9.868,12.592 L7.068,12.592 L7.068,9.808 Z" id="B" fill="#FFFFFF" fill-rule="nonzero"></path>
    </g>
</svg>